<svg width="791" height="292" viewBox="0 0 791 292" fill="none" xmlns="http://www.w3.org/2000/svg">
<g clip-path="url(#clip0_170_270)">
<path d="M199.435 109.5V140.794L190.416 146L199.435 151.206V182.5L190.416 187.706L181.378 192.931L172.34 198.137L163.322 203.363L154.284 208.569L145.246 213.794L136.227 219L127.19 213.794L118.152 208.569L127.19 203.363L145.246 192.931L154.284 187.706L163.322 182.5L172.34 177.294L181.378 172.069V161.637L172.34 156.431L163.322 151.206L154.284 146L163.322 140.794L172.34 135.569L181.378 130.363V119.931L172.34 114.706L163.322 109.5L154.284 104.294L145.246 99.0687L136.227 93.8627L127.19 88.6373L118.152 83.4313L127.19 78.206L136.227 73L145.246 78.206L154.284 83.4313L163.322 88.6373L172.34 93.8627L181.378 99.0687L190.416 104.294L199.435 109.5Z" fill="#00AA45"/>
<path d="M145.245 161.637L154.283 166.863L145.245 172.069L136.227 177.294L127.189 182.5L118.151 187.706L109.132 192.931L100.094 198.137L91.0565 192.931L82.0379 187.706L73 182.5V109.5L82.0379 104.294L91.0565 99.0687L100.094 93.8627L109.132 99.0687L118.151 104.294L109.132 109.5L100.094 114.706L91.0565 119.931V140.794L100.094 135.569L109.132 130.363L118.151 125.137L127.189 119.931L136.227 114.706L145.245 119.931L154.283 125.137L145.245 130.363L136.227 135.569L127.189 140.794L118.151 146L109.132 151.206L100.094 156.431L91.0565 161.637V172.069L100.094 177.294L109.132 172.069L118.151 166.863L127.189 161.637L136.227 156.431L145.245 161.637Z" fill="#00AA45"/>
<path d="M250.121 153.064C250.992 156.122 252.637 158.541 255.076 160.302C257.514 162.082 260.533 162.973 264.172 162.973C267.81 162.973 270.5 162.528 272.668 161.618C274.854 160.708 276.887 159.683 278.764 158.502L284.221 168.972C283.138 169.766 281.88 170.579 280.467 171.372C279.054 172.165 277.448 172.92 275.667 173.617C273.887 174.314 271.952 174.875 269.842 175.301C267.733 175.726 265.41 175.959 262.875 175.959C258.656 175.959 254.843 175.262 251.437 173.888C248.012 172.514 245.109 170.598 242.709 168.159C240.309 165.721 238.471 162.818 237.213 159.431C235.935 156.044 235.297 152.367 235.297 148.361C235.297 144.723 235.877 141.297 237.038 138.065C238.2 134.833 239.883 132.008 242.109 129.569C244.315 127.131 247.005 125.215 250.179 123.783C253.334 122.37 256.953 121.654 261.017 121.654C265.081 121.654 268.874 122.428 271.971 123.996C275.067 125.563 277.583 127.595 279.538 130.092C281.493 132.608 282.944 135.453 283.892 138.646C284.841 141.839 285.305 145.11 285.305 148.458C285.305 148.961 285.305 149.716 285.247 150.703C285.208 151.69 285.15 152.464 285.092 153.045H250.102L250.121 153.064ZM260.92 133.227C258.153 133.227 255.85 134.098 253.992 135.84C252.134 137.581 250.857 139.943 250.121 142.923H271.042C270.674 140.155 269.687 137.852 268.1 135.994C266.513 134.137 264.094 133.208 260.901 133.208L260.92 133.227Z" fill="white"/>
<path d="M339.184 141.259C336.243 138.027 332.469 135.433 327.843 133.44L319.58 129.705C316.638 128.447 314.49 127.247 313.135 126.066C311.78 124.905 311.103 123.357 311.103 121.441C311.103 119.525 311.877 118.073 313.425 117.028C314.974 116.003 316.793 115.48 318.941 115.48C320.334 115.48 321.766 115.674 323.237 116.041C324.689 116.409 326.102 116.874 327.456 117.415C328.83 117.977 330.088 118.577 331.25 119.235C332.43 119.893 333.436 120.551 334.327 121.189L341.274 110.061C339.049 108.339 336.726 106.829 334.327 105.591C333.165 104.952 331.966 104.391 330.766 103.888C327.05 102.359 322.928 101.565 318.38 101.565C314.625 101.565 311.258 102.088 308.297 103.113C305.316 104.139 302.82 105.591 300.749 107.468C298.698 109.345 297.13 111.551 296.066 114.087C295.001 116.622 294.479 119.389 294.479 122.409C294.479 125.428 294.982 128.079 295.969 130.401C296.956 132.724 298.272 134.756 299.878 136.517C301.504 138.278 303.342 139.749 305.394 140.968C307.465 142.187 309.555 143.233 311.664 144.123L320.044 147.432C322.173 148.458 323.857 149.561 325.115 150.742C326.353 151.922 326.992 153.393 326.992 155.154C326.992 157.225 326.276 158.812 324.844 159.954C323.411 161.095 321.418 161.657 318.825 161.657C315.148 161.657 311.703 160.766 308.432 158.967C305.161 157.167 302.046 155.212 299.123 153.064L291.963 164.521C293.724 165.992 295.64 167.385 297.691 168.701C298.156 169.011 298.639 169.301 299.123 169.572C300.749 170.559 302.433 171.43 304.194 172.224C306.458 173.249 308.8 174.081 311.2 174.701C313.58 175.339 316.038 175.649 318.515 175.649C322.115 175.649 325.463 175.126 328.54 174.101C331.637 173.075 334.288 171.624 336.533 169.746C338.778 167.869 340.52 165.585 341.758 162.857C342.997 160.128 343.635 157.051 343.635 153.606C343.635 148.613 342.165 144.51 339.223 141.259H339.184Z" fill="white"/>
<path d="M370.672 154.922V156.257L371.02 155.793C370.885 155.522 370.769 155.212 370.672 154.922ZM370.672 154.922V156.257L371.02 155.793C370.885 155.522 370.769 155.212 370.672 154.922Z" fill="white"/>
<path d="M452.554 122.757V127.053C450.638 125.35 448.528 124.034 446.225 123.067C443.903 122.118 441.251 121.634 438.232 121.634C434.923 121.634 431.865 122.273 429.04 123.57C426.214 124.847 423.756 126.686 421.724 129.027C419.653 131.388 418.047 134.214 416.886 137.523C415.705 140.833 415.125 144.471 415.125 148.419C415.125 152.832 415.705 156.722 416.886 160.108C418.066 163.476 419.673 166.321 421.724 168.605C423.776 170.869 426.214 172.591 429.04 173.772C431.865 174.952 434.942 175.533 438.232 175.533C441.522 175.533 444.096 174.972 446.341 173.869C448.586 172.785 450.657 171.256 452.573 169.359V174.314H468.868V122.757H452.573H452.554ZM450.444 158.231C448.47 160.786 445.664 162.083 442.084 162.083C438.503 162.083 435.697 160.825 433.723 158.289C431.73 155.754 430.743 152.522 430.743 148.555C430.743 144.587 431.71 141.433 433.665 138.897C435.6 136.362 438.387 135.104 441.987 135.104C445.296 135.104 448.025 136.246 450.193 138.53C452.36 140.813 453.425 144.162 453.425 148.555C453.425 152.445 452.438 155.677 450.444 158.251V158.231Z" fill="white"/>
<path d="M516.808 121.809C515.821 121.634 514.583 121.538 513.131 121.538C510.035 121.538 507.422 122.583 505.254 124.673C503.087 126.763 501.21 129.24 499.584 132.104V122.738H483.289V174.294H499.584V149.077C499.584 146.813 499.913 144.878 500.571 143.291C501.229 141.723 502.1 140.426 503.164 139.439C504.229 138.433 505.448 137.717 506.803 137.233C508.157 136.769 509.57 136.517 511.041 136.517C512.512 136.517 513.886 136.672 515.163 137.001C516.44 137.349 517.273 137.581 517.64 137.717V121.983C517.369 121.905 517.098 121.847 516.808 121.789V121.809Z" fill="white"/>
<path d="M558.726 145.884L577.576 122.757H558.842L543.979 143.136V94.9852H527.664V174.294H543.979V150.722L562.713 174.294H581.756L558.726 145.865V145.884Z" fill="white"/>
<path d="M406.396 137.175C405.196 133.808 403.648 130.963 401.655 128.698C399.584 126.415 397.165 124.692 394.378 123.512C391.514 122.35 388.417 121.751 385.147 121.751C381.876 121.751 379.186 122.331 376.98 123.512C374.696 124.692 372.625 126.24 370.69 128.137V122.97H354.375V196.995L370.69 184.397V170.54C372.625 172.243 374.735 173.559 377.096 174.507C377.928 174.836 378.837 175.107 379.786 175.32C381.373 175.668 383.114 175.843 384.992 175.843C388.379 175.843 391.494 175.185 394.359 173.849C395.113 173.501 395.81 173.114 396.507 172.688C398.403 171.527 400.126 170.056 401.635 168.353C403.687 165.992 405.293 163.166 406.474 159.857C407.577 156.489 408.119 152.793 408.119 148.845C408.119 144.432 407.538 140.542 406.358 137.156L406.396 137.175ZM392.404 150.471C392.133 153.528 391.185 156.141 389.54 158.328C388.766 159.354 387.895 160.167 386.888 160.786C385.301 161.792 383.385 162.295 381.16 162.295C377.87 162.295 375.122 161.134 372.973 158.773C372.18 157.922 371.522 156.935 371.038 155.793L370.69 156.257V154.922C370.032 153.103 369.703 150.974 369.703 148.535C369.703 146.348 370.032 144.374 370.69 142.575C371.154 141.239 371.832 140.02 372.683 138.897C374.677 136.304 377.463 134.988 381.063 134.988C382.824 134.988 384.392 135.298 385.785 135.898C387.217 136.536 388.456 137.504 389.462 138.781C391.475 141.317 392.501 144.549 392.501 148.535C392.501 149.193 392.462 149.851 392.404 150.471Z" fill="white"/>
<path d="M634.144 143.736C632.035 140.852 628.9 138.723 624.719 137.407C627.661 135.801 630.022 133.672 631.841 131.021C633.641 128.369 634.532 125.331 634.532 121.867C634.532 115.906 632.403 111.28 628.145 107.932C623.887 104.604 617.636 102.92 609.411 102.92H590.464V174.294H611.288C616.069 174.294 620.094 173.714 623.403 172.533C626.713 171.353 629.403 169.785 631.454 167.85C633.525 165.914 634.996 163.669 635.925 161.134C636.835 158.599 637.318 156.006 637.318 153.374C637.318 149.832 636.273 146.619 634.183 143.716L634.144 143.736ZM599.812 110.855H610.514C614.927 110.855 618.449 111.938 621.139 114.106C623.829 116.274 625.165 118.964 625.165 122.215C625.165 123.744 624.894 125.273 624.332 126.782C623.771 128.292 622.92 129.608 621.739 130.75C620.578 131.892 619.049 132.821 617.172 133.498C615.295 134.175 613.069 134.543 610.514 134.543H599.812V110.855ZM624.003 162.973C621.391 165.334 617.617 166.495 612.701 166.495H599.812V141.936H614.133C618.178 141.936 621.488 142.981 624.042 145.071C626.616 147.161 627.893 150.006 627.893 153.625C627.893 157.515 626.597 160.631 623.984 162.973H624.003Z" fill="white"/>
<path d="M651.719 122.757V174.314H661.086V122.757H651.719Z" fill="white"/>
<path d="M718.254 122.757H675.638V130.905H702.83L672.658 174.314H716.609V166.282H687.87L718.273 122.757H718.254Z" fill="white"/>
<path d="M661.549 99.4944H651.117V111.629H661.549V99.4944Z" fill="white"/>
</g>
<g clip-path="url(#clip1_170_270)">
<path d="M199.435 109.5V140.794L190.416 146L199.435 151.206V182.5L190.416 187.706L181.378 192.931L172.34 198.137L163.322 203.363L154.284 208.569L145.246 213.794L136.227 219L127.19 213.794L118.152 208.569L127.19 203.363L145.246 192.931L154.284 187.706L163.322 182.5L172.34 177.294L181.378 172.069V161.637L172.34 156.431L163.322 151.206L154.284 146L163.322 140.794L172.34 135.569L181.378 130.363V119.931L172.34 114.706L163.322 109.5L154.284 104.294L145.246 99.0687L136.227 93.8627L127.19 88.6373L118.152 83.4313L127.19 78.206L136.227 73L145.246 78.206L154.284 83.4313L163.322 88.6373L172.34 93.8627L181.378 99.0687L190.416 104.294L199.435 109.5Z" fill="#00AA45"/>
<path d="M145.245 161.637L154.283 166.863L145.245 172.069L136.227 177.294L127.189 182.5L118.151 187.706L109.132 192.931L100.094 198.137L91.0565 192.931L82.0379 187.706L73 182.5V109.5L82.0379 104.294L91.0565 99.0687L100.094 93.8627L109.132 99.0687L118.151 104.294L109.132 109.5L100.094 114.706L91.0565 119.931V140.794L100.094 135.569L109.132 130.363L118.151 125.137L127.189 119.931L136.227 114.706L145.245 119.931L154.283 125.137L145.245 130.363L136.227 135.569L127.189 140.794L118.151 146L109.132 151.206L100.094 156.431L91.0565 161.637V172.069L100.094 177.294L109.132 172.069L118.151 166.863L127.189 161.637L136.227 156.431L145.245 161.637Z" fill="#00AA45"/>
<path d="M250.121 153.064C250.992 156.122 252.637 158.541 255.076 160.302C257.514 162.082 260.533 162.973 264.172 162.973C267.81 162.973 270.5 162.528 272.668 161.618C274.854 160.708 276.887 159.683 278.764 158.502L284.221 168.972C283.138 169.766 281.88 170.579 280.467 171.372C279.054 172.165 277.448 172.92 275.667 173.617C273.887 174.314 271.952 174.875 269.842 175.301C267.733 175.726 265.41 175.959 262.875 175.959C258.656 175.959 254.843 175.262 251.437 173.888C248.012 172.514 245.109 170.598 242.709 168.159C240.309 165.721 238.471 162.818 237.213 159.431C235.935 156.044 235.297 152.367 235.297 148.361C235.297 144.723 235.877 141.297 237.038 138.065C238.2 134.833 239.883 132.008 242.109 129.569C244.315 127.131 247.005 125.215 250.179 123.783C253.334 122.37 256.953 121.654 261.017 121.654C265.081 121.654 268.874 122.428 271.971 123.996C275.067 125.563 277.583 127.595 279.538 130.092C281.493 132.608 282.944 135.453 283.892 138.646C284.841 141.839 285.305 145.11 285.305 148.458C285.305 148.961 285.305 149.716 285.247 150.703C285.208 151.69 285.15 152.464 285.092 153.045H250.102L250.121 153.064ZM260.92 133.227C258.153 133.227 255.85 134.098 253.992 135.84C252.134 137.581 250.857 139.943 250.121 142.923H271.042C270.674 140.155 269.687 137.852 268.1 135.994C266.513 134.137 264.094 133.208 260.901 133.208L260.92 133.227Z" fill="#111111"/>
<path d="M339.184 141.259C336.243 138.027 332.469 135.433 327.843 133.44L319.58 129.705C316.638 128.447 314.49 127.247 313.135 126.066C311.78 124.905 311.103 123.357 311.103 121.441C311.103 119.525 311.877 118.073 313.425 117.028C314.974 116.003 316.793 115.48 318.941 115.48C320.334 115.48 321.766 115.674 323.237 116.041C324.689 116.409 326.102 116.874 327.456 117.415C328.83 117.977 330.088 118.577 331.25 119.235C332.43 119.893 333.436 120.551 334.327 121.189L341.274 110.061C339.049 108.339 336.726 106.829 334.327 105.591C333.165 104.952 331.966 104.391 330.766 103.888C327.05 102.359 322.928 101.565 318.38 101.565C314.625 101.565 311.258 102.088 308.297 103.113C305.316 104.139 302.82 105.591 300.749 107.468C298.698 109.345 297.13 111.551 296.066 114.087C295.001 116.622 294.479 119.389 294.479 122.409C294.479 125.428 294.982 128.079 295.969 130.401C296.956 132.724 298.272 134.756 299.878 136.517C301.504 138.278 303.342 139.749 305.394 140.968C307.465 142.187 309.555 143.233 311.664 144.123L320.044 147.432C322.173 148.458 323.857 149.561 325.115 150.742C326.353 151.922 326.992 153.393 326.992 155.154C326.992 157.225 326.276 158.812 324.844 159.954C323.411 161.095 321.418 161.657 318.825 161.657C315.148 161.657 311.703 160.766 308.432 158.967C305.161 157.167 302.046 155.212 299.123 153.064L291.963 164.521C293.724 165.992 295.64 167.385 297.691 168.701C298.156 169.011 298.639 169.301 299.123 169.572C300.749 170.559 302.433 171.43 304.194 172.224C306.458 173.249 308.8 174.081 311.2 174.701C313.58 175.339 316.038 175.649 318.515 175.649C322.115 175.649 325.463 175.126 328.54 174.101C331.637 173.075 334.288 171.624 336.533 169.746C338.778 167.869 340.52 165.585 341.758 162.857C342.997 160.128 343.635 157.051 343.635 153.606C343.635 148.613 342.165 144.51 339.223 141.259H339.184Z" fill="#111111"/>
<path d="M370.672 154.922V156.257L371.02 155.793C370.885 155.522 370.769 155.212 370.672 154.922ZM370.672 154.922V156.257L371.02 155.793C370.885 155.522 370.769 155.212 370.672 154.922Z" fill="#111111"/>
<path d="M452.554 122.757V127.053C450.638 125.35 448.528 124.034 446.225 123.067C443.903 122.118 441.251 121.634 438.232 121.634C434.923 121.634 431.865 122.273 429.04 123.57C426.214 124.847 423.756 126.686 421.724 129.027C419.653 131.388 418.047 134.214 416.886 137.523C415.705 140.833 415.125 144.471 415.125 148.419C415.125 152.832 415.705 156.722 416.886 160.108C418.066 163.476 419.673 166.321 421.724 168.605C423.776 170.869 426.214 172.591 429.04 173.772C431.865 174.952 434.942 175.533 438.232 175.533C441.522 175.533 444.096 174.972 446.341 173.869C448.586 172.785 450.657 171.256 452.573 169.359V174.314H468.868V122.757H452.573H452.554ZM450.444 158.231C448.47 160.786 445.664 162.083 442.084 162.083C438.503 162.083 435.697 160.825 433.723 158.289C431.73 155.754 430.743 152.522 430.743 148.555C430.743 144.587 431.71 141.433 433.665 138.897C435.6 136.362 438.387 135.104 441.987 135.104C445.296 135.104 448.025 136.246 450.193 138.53C452.36 140.813 453.425 144.162 453.425 148.555C453.425 152.445 452.438 155.677 450.444 158.251V158.231Z" fill="#111111"/>
<path d="M516.808 121.809C515.821 121.634 514.583 121.538 513.131 121.538C510.035 121.538 507.422 122.583 505.254 124.673C503.087 126.763 501.21 129.24 499.584 132.104V122.738H483.289V174.294H499.584V149.077C499.584 146.813 499.913 144.878 500.571 143.291C501.229 141.723 502.1 140.426 503.164 139.439C504.229 138.433 505.448 137.717 506.803 137.233C508.157 136.769 509.57 136.517 511.041 136.517C512.512 136.517 513.886 136.672 515.163 137.001C516.44 137.349 517.273 137.581 517.64 137.717V121.983C517.369 121.905 517.098 121.847 516.808 121.789V121.809Z" fill="#111111"/>
<path d="M558.726 145.884L577.576 122.757H558.842L543.979 143.136V94.9852H527.664V174.294H543.979V150.722L562.713 174.294H581.756L558.726 145.865V145.884Z" fill="#111111"/>
<path d="M406.396 137.175C405.196 133.808 403.648 130.963 401.655 128.698C399.584 126.415 397.165 124.692 394.378 123.512C391.514 122.35 388.417 121.751 385.147 121.751C381.876 121.751 379.186 122.331 376.98 123.512C374.696 124.692 372.625 126.24 370.69 128.137V122.97H354.375V196.995L370.69 184.397V170.54C372.625 172.243 374.735 173.559 377.096 174.507C377.928 174.836 378.837 175.107 379.786 175.32C381.373 175.668 383.114 175.843 384.992 175.843C388.379 175.843 391.494 175.185 394.359 173.849C395.113 173.501 395.81 173.114 396.507 172.688C398.403 171.527 400.126 170.056 401.635 168.353C403.687 165.992 405.293 163.166 406.474 159.857C407.577 156.489 408.119 152.793 408.119 148.845C408.119 144.432 407.538 140.542 406.358 137.156L406.396 137.175ZM392.404 150.471C392.133 153.528 391.185 156.141 389.54 158.328C388.766 159.354 387.895 160.167 386.888 160.786C385.301 161.792 383.385 162.295 381.16 162.295C377.87 162.295 375.122 161.134 372.973 158.773C372.18 157.922 371.522 156.935 371.038 155.793L370.69 156.257V154.922C370.032 153.103 369.703 150.974 369.703 148.535C369.703 146.348 370.032 144.374 370.69 142.575C371.154 141.239 371.832 140.02 372.683 138.897C374.677 136.304 377.463 134.988 381.063 134.988C382.824 134.988 384.392 135.298 385.785 135.898C387.217 136.536 388.456 137.504 389.462 138.781C391.475 141.317 392.501 144.549 392.501 148.535C392.501 149.193 392.462 149.851 392.404 150.471Z" fill="#111111"/>
<path d="M634.144 143.736C632.035 140.852 628.9 138.723 624.719 137.407C627.661 135.801 630.022 133.672 631.841 131.021C633.641 128.369 634.532 125.331 634.532 121.867C634.532 115.906 632.403 111.28 628.145 107.932C623.887 104.604 617.636 102.92 609.411 102.92H590.464V174.294H611.288C616.069 174.294 620.094 173.714 623.403 172.533C626.713 171.353 629.403 169.785 631.454 167.85C633.525 165.914 634.996 163.669 635.925 161.134C636.835 158.599 637.318 156.006 637.318 153.374C637.318 149.832 636.273 146.619 634.183 143.716L634.144 143.736ZM599.812 110.855H610.514C614.927 110.855 618.449 111.938 621.139 114.106C623.829 116.274 625.165 118.964 625.165 122.215C625.165 123.744 624.894 125.273 624.332 126.782C623.771 128.292 622.92 129.608 621.739 130.75C620.578 131.892 619.049 132.821 617.172 133.498C615.295 134.175 613.069 134.543 610.514 134.543H599.812V110.855ZM624.003 162.973C621.391 165.334 617.617 166.495 612.701 166.495H599.812V141.936H614.133C618.178 141.936 621.488 142.981 624.042 145.071C626.616 147.161 627.893 150.006 627.893 153.625C627.893 157.515 626.597 160.631 623.984 162.973H624.003Z" fill="#111111"/>
<path d="M651.719 122.757V174.314H661.086V122.757H651.719Z" fill="#111111"/>
<path d="M718.254 122.757H675.638V130.905H702.83L672.658 174.314H716.609V166.282H687.87L718.273 122.757H718.254Z" fill="#111111"/>
<path d="M661.549 99.4944H651.117V111.629H661.549V99.4944Z" fill="#111111"/>
</g>
<defs>
<clipPath id="clip0_170_270">
<rect width="645.253" height="146" fill="white" transform="translate(73 73)"/>
</clipPath>
<clipPath id="clip1_170_270">
<rect width="645.253" height="146" fill="white" transform="translate(73 73)"/>
</clipPath>
</defs>
</svg>
